<svg width="244" height="25" viewBox="0 0 244 25" fill="none" xmlns="http://www.w3.org/2000/svg">
<path fill-rule="evenodd" clip-rule="evenodd" d="M28.8559 0.184692L19.8739 7.79406L10.862 0.199613L0.89522 0.184692L14.8457 12.0464L0 24.5645H10.2353L19.9186 16.3882L29.6616 24.5645H39.6881L24.9468 12.106L39.0614 0.184692H28.8559ZM206.759 5.22777H226.513V9.88291H206.759V5.22777ZM200 0.184692V24.5198H206.729V14.926H226.573V24.5944H233.317V0.184692H200ZM84 24.4899V0.184692H117.213V5.1084H90.7291V9.86799H117.213V14.8066H90.744V19.5513H117.213V24.4899H84ZM44 0.184692V5.13824H57.2791V24.4452H64.0529V5.06364H77.2723V0.184692H44ZM162 24.475V0.184692H193.273V5.1084H168.759V24.475H162ZM125 0.184692V24.4899H131.744V5.1084H154.304V0.184692H125ZM240.463 20.1101H239.663V21.3518H240.284C240.823 21.3518 241.313 21.3191 241.313 20.7146C241.313 20.1102 240.872 20.1101 240.463 20.1101ZM239.663 23.5082H239.058V19.7017H240.562C241.476 19.7017 241.917 20.0775 241.917 20.8126C241.927 20.9517 241.907 21.0911 241.859 21.222C241.811 21.3528 241.736 21.4721 241.639 21.5722C241.542 21.6723 241.425 21.7509 241.296 21.8029C241.166 21.855 241.027 21.8794 240.888 21.8745L241.999 23.5082H241.362L240.3 21.8745H239.663V23.5082ZM238.068 19.9659C237.753 20.402 237.573 20.9209 237.551 21.4583C237.533 21.8288 237.591 22.1991 237.721 22.5464C237.851 22.8938 238.051 23.2109 238.308 23.4785C238.565 23.7461 238.873 23.9585 239.215 24.1027C239.557 24.247 239.924 24.32 240.295 24.3173C240.833 24.3168 241.359 24.1584 241.808 23.8615C242.256 23.5647 242.608 23.1426 242.818 22.6477C243.029 22.1529 243.09 21.607 242.993 21.0779C242.896 20.5489 242.645 20.0599 242.273 19.6719C241.9 19.2839 241.422 19.0139 240.897 18.8955C240.373 18.777 239.825 18.8153 239.322 19.0056C238.819 19.1959 238.383 19.5299 238.068 19.9659ZM237.551 23.3631C237.192 22.8258 237 22.194 237 21.5478C237 20.6812 237.344 19.8502 237.957 19.2374C238.57 18.6246 239.401 18.2804 240.267 18.2804C240.914 18.2804 241.545 18.472 242.083 18.8311C242.62 19.1901 243.039 19.7004 243.286 20.2974C243.533 20.8945 243.598 21.5514 243.472 22.1852C243.346 22.8191 243.035 23.4013 242.578 23.8582C242.121 24.3152 241.539 24.6263 240.905 24.7524C240.271 24.8785 239.614 24.8138 239.017 24.5665C238.42 24.3192 237.91 23.9004 237.551 23.3631Z" fill="white"/>
</svg>
